# xmcd
#
# Track frame offsets:
#  150
#  13062
#  24195
#  34682
#  44850
#  56275
#  68037
#
# Disc length: 1064 seconds
#
# Revision: 0
# Processed by: cddbd v1.5.1PL0 Copyright (c) Steve Scherf et al.
# Submitted via: AltoMP3_Maker 3.0
#
DISCID=53042607
DTITLE=The Drifters - Greatest Hits
DYEAR=1900
DGENRE=
TTITLE0=On Broadway
TTITLE1=Save The Last Dance For Me
TTITLE2=Dance With Me
TTITLE3=There Goes My Babye
TTITLE4=Up On The Roof
TTITLE5=Under The Boardwalk
TTITLE6=The Magic Moment
EXTD=
EXTT0=
EXTT1=
EXTT2=
EXTT3=
EXTT4=
EXTT5=
EXTT6=
PLAYORDER=
